PathFileType  4	(X/Y/Z) C:\Users\wagnerel85475\Documents\Thesis\opencap-core\Data\3375ffbc-daeb-4a43-b4f7-ac9899cd4c71\MarkerData\PreAugmentation
DataRate	CameraRate	NumFrames	NumMarkers	Units	OrigDataRate	OrigDataStartFrame	OrigNumFrames
60.0	60.0	12	20	m	60.0	1	823
Frame#	Time	Neck			RShoulder			RElbow			RWrist			LShoulder			LElbow			LWrist			midHip			RHip			RKnee			RAnkle			LHip			LKnee			LAnkle			LBigToe			LSmallToe			LHeel			RBigToe			RSmallToe			RHeel			
		X1	Y1	Z1	X2	Y2	Z2	X3	Y3	Z3	X4	Y4	Z4	X5	Y5	Z5	X6	Y6	Z6	X7	Y7	Z7	X8	Y8	Z8	X9	Y9	Z9	X10	Y10	Z10	X11	Y11	Z11	X12	Y12	Z12	X13	Y13	Z13	X14	Y14	Z14	X15	Y15	Z15	X16	Y16	Z16	X17	Y17	Z17	X18	Y18	Z18	X19	Y19	Z19	X20	Y20	Z20	

1	0.0000000	-0.9582400	1.3581900	-0.0422600	-0.9475000	1.3634500	0.1330700	-1.0033700	1.0434300	0.1952500	-0.9454900	0.7624700	0.2689500	-0.9853800	1.3586800	-0.2290400	-0.9529600	1.0416600	-0.2927100	-0.9444900	0.7659500	-0.3235400	-0.8923600	0.7957000	-0.0325300	-0.8957800	0.7952800	0.0684600	-1.0044500	0.2982000	0.1061800	-1.0928400	-0.1962200	0.1594700	-0.9177700	0.7894700	-0.1532700	-1.0265700	0.2805000	-0.1502100	-1.0239100	-0.1831700	-0.2147800	-0.8099000	-0.2471500	-0.2473100	-0.8695700	-0.2418800	-0.2804500	-1.1355400	-0.2556500	-0.1790600	-0.8414000	-0.2579600	0.1997100	-0.9047400	-0.2431400	0.2482900	-1.0948400	-0.2435800	0.1373700
2	0.0166667	-0.9582400	1.3581800	-0.0422600	-0.9463100	1.3634300	0.1333300	-1.0033900	1.0434300	0.1952500	-0.9454400	0.7624300	0.2689400	-0.9853800	1.3586600	-0.2290300	-0.9582200	1.0414000	-0.2943300	-0.9460600	0.7640300	-0.3237200	-0.8923300	0.7958600	-0.0325400	-0.8957600	0.7952700	0.0684500	-1.0045200	0.2982400	0.1062000	-1.0928600	-0.1960800	0.1594800	-0.9178400	0.7895500	-0.1532700	-1.0265400	0.2803800	-0.1502100	-1.0239300	-0.1831700	-0.2147900	-0.8084200	-0.2486900	-0.2476100	-0.8696000	-0.2418500	-0.2804500	-1.1354800	-0.2558700	-0.1790800	-0.8413100	-0.2579100	0.1997400	-0.9051800	-0.2433200	0.2484600	-1.0947700	-0.2435700	0.1373600
3	0.0333333	-0.9582200	1.3582000	-0.0422400	-0.9412000	1.3634000	0.1344400	-1.0033800	1.0434200	0.1952500	-0.9454000	0.7624600	0.2689500	-0.9853700	1.3586200	-0.2290200	-0.9581200	1.0414400	-0.2943000	-0.9517200	0.7621500	-0.3248500	-0.8923200	0.7959500	-0.0325500	-0.8957500	0.7952500	0.0684500	-1.0044800	0.2975900	0.1061700	-1.0928900	-0.1959000	0.1595000	-0.9179800	0.7894900	-0.1532900	-1.0264500	0.2801900	-0.1502000	-1.0239000	-0.1832000	-0.2147900	-0.8074900	-0.2498400	-0.2477900	-0.8695900	-0.2418500	-0.2804500	-1.1354700	-0.2558800	-0.1790900	-0.8425400	-0.2582500	0.1995000	-0.9056400	-0.2434500	0.2486300	-1.0947400	-0.2435600	0.1373600
4	0.0500000	-0.9581500	1.3582200	-0.0422200	-0.9337400	1.3633200	0.1360500	-1.0033400	1.0434200	0.1952700	-0.9453800	0.7623900	0.2689500	-0.9853600	1.3586100	-0.2290000	-0.9540700	1.0416200	-0.2930900	-0.9583500	0.7618300	-0.3270000	-0.8923800	0.7956000	-0.0325400	-0.8957500	0.7952400	0.0684500	-1.0043100	0.2967700	0.1060700	-1.0928000	-0.1965600	0.1594400	-0.9179000	0.7895300	-0.1533100	-1.0264900	0.2805300	-0.1501600	-1.0238900	-0.1831700	-0.2147900	-0.8084400	-0.2504000	-0.2474600	-0.8695900	-0.2418300	-0.2804500	-1.1354500	-0.2558300	-0.1790800	-0.8475200	-0.2595600	0.1984900	-0.9046200	-0.2431700	0.2481800	-1.0947100	-0.2435600	0.1373700
5	0.0666667	-0.9580300	1.3582700	-0.0421800	-0.9285000	1.3633000	0.1371800	-1.0032500	1.0433300	0.1952900	-0.9453900	0.7623900	0.2689600	-0.9853400	1.3585400	-0.2289900	-0.9515000	1.0415900	-0.2923500	-0.9577200	0.7636800	-0.3301100	-0.8926000	0.7941800	-0.0324700	-0.8957400	0.7952300	0.0684600	-1.0041900	0.2975500	0.1059100	-1.0926500	-0.1976600	0.1593400	-0.9171100	0.7894900	-0.1533600	-1.0268800	0.2819800	-0.1500400	-1.0238400	-0.1831800	-0.2147800	-0.8114700	-0.2512400	-0.2465000	-0.8695800	-0.2418900	-0.2804400	-1.1354300	-0.2557400	-0.1790600	-0.8549900	-0.2614100	0.1969700	-0.9002500	-0.2420400	0.2463700	-1.0946800	-0.2435200	0.1373800
6	0.0833333	-0.9579400	1.3582900	-0.0421700	-0.9271700	1.3633400	0.1374700	-1.0031500	1.0434000	0.1953300	-0.9454300	0.7623500	0.2689900	-0.9852900	1.3585700	-0.2289800	-0.9536000	1.0412500	-0.2930000	-0.9462000	0.7669200	-0.3343000	-0.8929400	0.7922700	-0.0323800	-0.8957300	0.7951900	0.0684700	-1.0042500	0.3002800	0.1057700	-1.0925600	-0.1983000	0.1592800	-0.9161600	0.7895700	-0.1534100	-1.0275600	0.2840000	-0.1499000	-1.0238300	-0.1831400	-0.2147900	-0.8150200	-0.2522200	-0.2454100	-0.8696000	-0.2420200	-0.2804300	-1.1354500	-0.2556200	-0.1790600	-0.8605500	-0.2628600	0.1958300	-0.8938900	-0.2403800	0.2437800	-1.0946000	-0.2435800	0.1373800
7	0.1000000	-0.9578900	1.3582900	-0.0421600	-0.9276800	1.3633100	0.1373500	-1.0031800	1.0433800	0.1953400	-0.9455000	0.7623700	0.2690200	-0.9852400	1.3585900	-0.2289700	-0.9574100	1.0414200	-0.2941300	-0.9294100	0.7703000	-0.3390700	-0.8931400	0.7914300	-0.0323400	-0.8957400	0.7951800	0.0684800	-1.0043400	0.3024600	0.1057400	-1.0925200	-0.1984500	0.1592600	-0.9185900	0.7893700	-0.1533800	-1.0281200	0.2854100	-0.1498100	-1.0238300	-0.1831200	-0.2147900	-0.8179300	-0.2531200	-0.2445400	-0.8696400	-0.2420500	-0.2804300	-1.1354900	-0.2555300	-0.1790600	-0.8622700	-0.2633400	0.1954600	-0.8894400	-0.2392300	0.2419900	-1.0945700	-0.2436000	0.1373800
8	0.1166667	-0.9578900	1.3583000	-0.0421600	-0.9281200	1.3633400	0.1372500	-1.0036000	1.0433500	0.1952600	-0.9454200	0.7623000	0.2690100	-0.9852300	1.3585700	-0.2289600	-0.9590500	1.0427400	-0.2945600	-0.9148800	0.7741100	-0.3432400	-0.8931100	0.7920700	-0.0323700	-0.8957800	0.7951600	0.0684900	-1.0044100	0.3019700	0.1058400	-1.0925600	-0.1979800	0.1593000	-0.9283700	0.7885500	-0.1531700	-1.0283100	0.2858800	-0.1497900	-1.0238400	-0.1831100	-0.2148000	-0.8198300	-0.2531500	-0.2439600	-0.8695700	-0.2415800	-0.2804900	-1.1355400	-0.2554600	-0.1790600	-0.8604200	-0.2628700	0.1958300	-0.8883400	-0.2389200	0.2415800	-1.0946100	-0.2436100	0.1373900
9	0.1333333	-0.9579100	1.3582900	-0.0421500	-0.9281700	1.3633200	0.1372400	-1.0041100	1.0433000	0.1951600	-0.9450000	0.7623300	0.2688600	-0.9852700	1.3585500	-0.2289300	-0.9585900	1.0446000	-0.2943600	-0.9045400	0.7773800	-0.3463300	-0.8931300	0.7926700	-0.0323900	-0.8958500	0.7951600	0.0685000	-1.0044900	0.2998500	0.1060100	-1.0927400	-0.1963800	0.1594400	-0.9424700	0.7873700	-0.1528200	-1.0282500	0.2856300	-0.1498000	-1.0238200	-0.1831600	-0.2148000	-0.8186000	-0.2514100	-0.2442300	-0.8693700	-0.2406600	-0.2806100	-1.1355500	-0.2555100	-0.1790700	-0.8548500	-0.2614000	0.1969500	-0.8887500	-0.2389900	0.2417800	-1.0946800	-0.2436700	0.1374100
10	0.1500000	-0.9579300	1.3582700	-0.0421300	-0.9281000	1.3633000	0.1372600	-1.0028900	1.0433400	0.1954300	-0.9444900	0.7623700	0.2686800	-0.9853300	1.3585300	-0.2289200	-0.9591800	1.0457400	-0.2945300	-0.8973600	0.7805700	-0.3485100	-0.8933100	0.7920300	-0.0323400	-0.8959000	0.7951600	0.0685200	-1.0045500	0.2982600	0.1061200	-1.0930500	-0.1941300	0.1596400	-0.9523700	0.7863600	-0.1525400	-1.0282100	0.2854700	-0.1498000	-1.0238500	-0.1831500	-0.2148100	-0.8155300	-0.2485500	-0.2450600	-0.8692700	-0.2401600	-0.2806700	-1.1355200	-0.2557000	-0.1790900	-0.8474700	-0.2594400	0.1984400	-0.8890600	-0.2390700	0.2419400	-1.0947000	-0.2435800	0.1373800
11	0.1666667	-0.9579400	1.3582900	-0.0421200	-0.9280600	1.3633500	0.1372900	-0.9978600	1.0435400	0.1965000	-0.9454800	0.7622700	0.2690900	-0.9853800	1.3585400	-0.2289000	-0.9646500	1.0456900	-0.2962400	-0.8921900	0.7834600	-0.3500800	-0.8934600	0.7914800	-0.0323100	-0.8959000	0.7951500	0.0685200	-1.0045300	0.2978600	0.1061500	-1.0933100	-0.1926000	0.1597900	-0.9552400	0.7861900	-0.1523300	-1.0282700	0.2855700	-0.1498000	-1.0238600	-0.1831800	-0.2148000	-0.8161600	-0.2473300	-0.2456300	-0.8693600	-0.2404200	-0.2806400	-1.1355400	-0.2557000	-0.1791100	-0.8424600	-0.2581300	0.1994500	-0.8890700	-0.2390200	0.2419700	-1.0942700	-0.2434700	0.1372200
12	0.1833333	-0.9579600	1.3583500	-0.0421000	-0.9280700	1.3634500	0.1373100	-0.9906100	1.0439200	0.1980400	-0.9497600	0.7618300	0.2708400	-0.9854500	1.3584300	-0.2288900	-0.9754700	1.0455100	-0.2996400	-0.8870100	0.7863800	-0.3516300	-0.8932800	0.7924800	-0.0323700	-0.8958700	0.7951500	0.0685100	-1.0044600	0.2980100	0.1061400	-1.0933700	-0.1922100	0.1598300	-0.9548400	0.7862800	-0.1521800	-1.0282900	0.2855800	-0.1498100	-1.0239100	-0.1831900	-0.2148000	-0.8213000	-0.2483800	-0.2468700	-0.8693600	-0.2401300	-0.2806900	-1.1354900	-0.2557600	-0.1791300	-0.8411000	-0.2578000	0.1997300	-0.8889800	-0.2389700	0.2419600	-1.0936900	-0.2433700	0.1370200
